inDegrees=no
num_controls=7
num_derivatives=13
num_iterations=36
num_multipliers=7
num_parameters=0
num_slacks=7
num_states=26
objective=0.416764
objective_accelerations=0.000000
objective_balance=0.010343
objective_effort=0.031323
objective_height=0.375098
objective_ligament=0.000000
solver_duration=479.038350
status=Solve_Succeeded
success=true
DataType=double
version=3
OpenSimVersion=4.5
endheader
time	/jointset/ground_pelvis/pelvis_tilt/value	/jointset/ground_pelvis/pelvis_tx/value	/jointset/ground_pelvis/pelvis_ty/value	/jointset/hip_l/hip_flexion_l/value	/jointset/hip_l/hip_adduction_l/value	/jointset/hip_l/hip_rotation_l/value	/jointset/back/lumbar_extension/value	/jointset/patellofemoral_l/patellar_flexion_l/value	/jointset/knee_l/knee_flexion_l/value	/jointset/knee_l/knee_adduction_l/value	/jointset/knee_l/knee_rotation_l/value	/jointset/ankle_l/ankle_angle_l/value	/jointset/subtalar_l/subtalar_angle_l/value	/jointset/ground_pelvis/pelvis_tilt/speed	/jointset/ground_pelvis/pelvis_tx/speed	/jointset/ground_pelvis/pelvis_ty/speed	/jointset/hip_l/hip_flexion_l/speed	/jointset/hip_l/hip_adduction_l/speed	/jointset/hip_l/hip_rotation_l/speed	/jointset/back/lumbar_extension/speed	/jointset/patellofemoral_l/patellar_flexion_l/speed	/jointset/knee_l/knee_flexion_l/speed	/jointset/knee_l/knee_adduction_l/speed	/jointset/knee_l/knee_rotation_l/speed	/jointset/ankle_l/ankle_angle_l/speed	/jointset/subtalar_l/subtalar_angle_l/speed	/forceset/tau_hip_flexion_l	/forceset/tau_hip_adduction_l	/forceset/tau_hip_rotation_l	/forceset/tau_knee_flexion_l	/forceset/tau_ankle_angle_l	/forceset/tau_subtalar_angle_l	/forceset/tau_lumbar_extension	lambda_cid13_p0	lambda_cid13_p1	lambda_cid13_p2	lambda_cid13_p3	lambda_cid13_p4	lambda_cid13_p5	lambda_cid14_p0	/jointset/ground_pelvis/pelvis_tilt/accel	/jointset/ground_pelvis/pelvis_tx/accel	/jointset/ground_pelvis/pelvis_ty/accel	/jointset/hip_l/hip_flexion_l/accel	/jointset/hip_l/hip_adduction_l/accel	/jointset/hip_l/hip_rotation_l/accel	/jointset/back/lumbar_extension/accel	/jointset/patellofemoral_l/patellar_flexion_l/accel	/jointset/knee_l/knee_flexion_l/accel	/jointset/knee_l/knee_adduction_l/accel	/jointset/knee_l/knee_rotation_l/accel	/jointset/ankle_l/ankle_angle_l/accel	/jointset/subtalar_l/subtalar_angle_l/accel	gamma_cid13_p0	gamma_cid13_p1	gamma_cid13_p2	gamma_cid13_p3	gamma_cid13_p4	gamma_cid13_p5	gamma_cid14_p0
0.5	-0.288071953818509	-0.0577007843621451	0.826281240594734	0.9422036592880808	-0.1736713855148339	-0.06003875128123648	-0.3869661841541742	0.4708870643895546	0.47088706438953	0.05320642326663478	0.0343378111982162	0.01237247213978385	0.08689171947107995	-0.780783865537054	-0.190394011639982	-0.2200164807386965	1.445870047877214	-0.02278389954957979	-0.02798288176855269	-0.1235882312505196	0.5605777931960546	0.5605777931960556	0.03594322710545669	0.1440091759086027	-0.09223414394297813	-0.05523639930646784	-0.1907703715981824	0.08229130001122388	-0.0009213900377791958	-0.2078900252255406	0.1880593378841928	-0.03271998593262494	0.200910337580947	16.49167040758654	16.28647624315208	-8.668734696878165	0.1530980239876058	-637.9572947858502	-12.01426081513695	-36.24602947278784	-1.146242893316394	0.293925805737807	0.001655029014044741	-0.1048191115269667	-0.0365440711950859	0.3152145238425106	3.203788782290856	-1.580453862051047	-1.580453862051047	-0.3038249253536882	-0.5503092416498284	-0.4241174273210063	-0.1547621181532805	2.537441829475845e-08	2.60057908001933e-08	3.035562142660491e-08	-3.774708187116909e-08	-1.91375728316487e-08	5.163457308542029e-09	3.398636709663444e-09
0.51	-0.2959350603907319	-0.05958995431571485	0.8240815177153654	0.9566547051339498	-0.1739018163185485	-0.06030194469507574	-0.3880435007632327	0.4764140336424373	0.4764140336424033	0.053548744518004	0.03575013622487313	0.01142932508689218	0.08633095869593917	-0.7916969157600275	-0.187435073085905	-0.2198966037442565	1.444156575157533	-0.02337070074691074	-0.02460049970466951	-0.09196205617461255	0.5448126702188451	0.5448126702188459	0.03235233442538959	0.1384543860031099	-0.09637292623902291	-0.05697814333490571	-0.1960039398502082	0.08246956893857854	-0.001222481523565649	-0.2067543408482534	0.1875563722180799	-0.03258032853845158	0.2042950042041618	16.28546332661795	16.21006340744888	-8.597310098145092	0.1781439636514812	-639.0228402856856	-11.94180685547208	-36.11365625042561	-1.042757304173981	0.2976072073368505	0.02187216240637291	-0.2319946448957446	-0.08002606672783348	0.3580386046239471	3.12898702405605	-1.575050187743924	-1.575050187744252	-0.412017130824118	-0.5582903375846308	-0.4054011672887119	-0.1932481637140017	2.156374161337504e-08	1.880314126346597e-08	5.538976869647152e-08	-3.204553744466922e-08	-2.523797524814924e-08	-1.427861200465584e-08	2.190060510383125e-09
0.52	-0.3039030817085399	-0.0614493890183206	0.8218839372314921	0.971083139594169	-0.1741401707187854	-0.0605296565768877	-0.3888071645907487	0.4817832499310687	0.4817832499310474	0.0538500977042885	0.03710686805795283	0.01044546170374002	0.08575090695680818	-0.8017668146788135	-0.184446961447185	-0.2195880016397061	1.441347770729553	-0.02436861885324449	-0.02088657536229646	-0.0608576749463313	0.5290272003541081	0.5290272003541091	0.02774961408569331	0.1328905371941979	-0.1003774099967375	-0.05909459210432648	-0.2012375081022215	0.08264783786587952	-0.001523573009112323	-0.20561865647093	0.1870534065519601	-0.03244067114433752	0.2076796708273952	16.071654801185	16.13392217723384	-8.524718773145388	0.2337256167223605	-640.191737263853	-11.88219810417854	-35.98023496072912	-0.9776126324820554	0.2997604226688856	0.03940005103657526	-0.3238854531872505	-0.1187674529958674	0.3815229795403989	3.09943001276388	-1.584523239556718	-1.584523239556718	-0.5061904572799184	-0.5521210223335909	-0.3972577196516972	-0.2297030663491409	1.666211855097441e-08	3.296816972850876e-08	4.967018765603641e-08	-3.033831061283301e-08	-1.983889996763862e-08	-4.511311849021631e-09	5.740145322120107e-10
0.53	-0.3119676092868068	-0.06327883106817971	0.8196903930258905	0.9854781821003726	-0.1743891767832732	-0.06071890624155161	-0.3892625592022521	0.486994556436263	0.4869945564362347	0.05410315043577518	0.03840731679812089	0.009422376124760818	0.08514929778525947	-0.8109944818527274	-0.1814395967076933	-0.2190879232330999	1.43748788159624	-0.02536168363325253	-0.01695244957321966	-0.03033136459188995	0.5132330816740451	0.513233081674046	0.02297661342352205	0.12714445280342	-0.1042010991279454	-0.06114053551528627	-0.206282325183505	0.08298341439424531	-0.001820483745998506	-0.2044826066691632	0.1866311711499204	-0.03232640713275502	0.2108167233800667	15.89236687363603	16.06310479688586	-8.453364396086471	0.2576876849340605	-641.2095015968713	-11.81637963763327	-35.84609968467534	-0.8737138404864506	0.3014963903043684	0.06024577312793904	-0.4429709510507432	-0.07895174601115933	0.4009913284928897	3.012713957211848	-1.57700897883779	-1.577008978838146	-0.4454919552676793	-0.5940723102384313	-0.3691285273992304	-0.1790463197811639	1.520523191449285e-08	3.650946113439569e-08	5.378776382419125e-08	-2.90449524969819e-08	-1.774148178019418e-08	-1.884809767138725e-09	-4.576796849965654e-11
0.54	-0.3201200875528235	-0.06507814509249701	0.8175028364118874	0.9998294396537981	-0.1746459886466654	-0.06086848785834803	-0.3894159942281057	0.4920478911952954	0.4920478911952787	0.05431194574373724	0.03964866066181936	0.008362212850968765	0.08452982791133801	-0.8193569522526022	-0.1784213563388266	-0.2183904833200499	1.432590780157015	-0.0259297786335519	-0.01295296578809898	-0.0004657578205668795	0.4974328511297071	0.4974328511297081	0.01889812937807998	0.1210695619011066	-0.107792948960881	-0.06266673257870205	-0.2113271422647775	0.08331899092256119	-0.002117394482646448	-0.2033465568673608	0.1862089357478752	-0.03221214312122774	0.2139537759327559	15.70558371368901	15.99244367591394	-8.380714306544812	0.3096569493391637	-642.330310932912	-11.76454688188661	-35.7115997133707	-0.8045732776772637	0.3019355485461874	0.07887235232574522	-0.5313279143698065	-0.03377349705432794	0.3945945787490879	2.967289296138524	-1.585745612411908	-1.585745612411908	-0.3672871339344399	-0.6178823246406121	-0.3508898599941816	-0.1257537968396619	1.755954302583668e-08	2.829683068759941e-08	6.878900328695641e-08	-2.820949168392284e-08	-1.92969608020996e-08	-7.158765128555218e-09	4.366984845736091e-10
0.55	-0.3283518639472285	-0.06684719696751498	0.8153232167675944	1.014126476261041	-0.1749079658877916	-0.0609776825508271	-0.3892740493887218	0.4969432316012544	0.4969432316012349	0.0544803219667006	0.04082865377292014	0.007267124155590186	0.08389597701704635	-0.8268465792160107	-0.1753842428412896	-0.2175020906588274	1.426629517794096	-0.02655429511606919	-0.008874966567172453	0.02873892566176838	0.4816389398554816	0.4816389398554825	0.0145890005744126	0.1149855210576827	-0.1112015066736641	-0.06418612491880474	-0.2162551716759003	0.08340059178417365	-0.00240345474657453	-0.202159369657835	0.1858298412845058	-0.03208492795770561	0.216932514948945	15.54484916662769	15.9137901134818	-8.309295132081111	0.3180416009008934	-643.2949229788459	-11.69148806942283	-35.57705998921271	-0.698396758555292	0.3053100791316243	0.09852192697691704	-0.6565804987940098	-0.09009966532963964	0.4160452826322693	2.879687865226712	-1.575657555908836	-1.575657555909213	-0.4909325679314908	-0.5952087566115088	-0.3323400707855521	-0.177447261874414	1.49567733853538e-08	3.177111096313728e-08	6.980551425279274e-08	-2.652468262727071e-08	-1.65403718876554e-08	-4.915259839211844e-09	-4.853754588230742e-10
0.5600000000000001	-0.3366539844817316	-0.06858573554179936	0.8131534208907063	1.028358289224426	-0.1751788500820402	-0.0610457687133271	-0.3888435317163064	0.5016807441602387	0.5016807441602279	0.05459996553877115	0.04194949771709974	0.006138649614318295	0.08324444913749712	-0.8334257802950475	-0.1723186961921069	-0.2164257298391025	1.419546051369514	-0.02771116925773308	-0.004731259791551035	0.05724880878172893	0.4658672817420101	0.465867281742011	0.009151599196808717	0.1092397285175354	-0.1144701181410287	-0.06620212963004742	-0.2211832010870136	0.08348219264573919	-0.00268951501026718	-0.2009721824482748	0.1854507468211318	-0.03195771279423557	0.2199112539651519	15.37672781096525	15.83507002564462	-8.236312086076722	0.3516367096262506	-644.3625521707683	-11.63364762028515	-35.44284222960083	-0.6224881008057721	0.3076221788774791	0.1164659840266209	-0.7557687267029565	-0.1402450288838213	0.4077360896879798	2.828329223661996	-1.581294980261334	-1.581294980261334	-0.5929416487220656	-0.5502326639852479	-0.322900610907631	-0.2250762710670328	6.405506842679075e-09	4.926968410547569e-08	5.404035102231503e-08	-2.382065567830693e-08	-8.609301449591823e-09	6.349198231043074e-09	-3.092897877983642e-09
0.5700000000000001	-0.3450174220420126	-0.07029352354331049	0.8109953392743801	1.042513944699406	-0.175461568900592	-0.06107251121224657	-0.388131542639449	0.5062606791263639	0.5062606791263556	0.05466436512423167	0.04301331876551302	0.004978448740956601	0.08257283197366851	-0.8391109397915228	-0.1692384149978674	-0.2151573388845246	1.411418379446322	-0.02868279562787578	-0.0006565379006302657	0.08501034043814536	0.4501243970013599	0.4501243970013608	0.004017240466909788	0.1034601130718906	-0.1175194224180679	-0.06795025477039421	-0.2258903772406149	0.0838606910557953	-0.00296605822697952	-0.1998027475150827	0.1851511989607997	-0.03187566786200257	0.2226236179549876	15.24106283099521	15.76930624997663	-8.164277247013532	0.3632238797790637	-645.278747825595	-11.57042540284409	-35.30928202998587	-0.5189154794946365	0.3083000038650057	0.1370130088390751	-0.8662703145846764	-0.05316492008755482	0.4014456828421679	2.729265210388788	-1.570081479759305	-1.570081479759711	-0.4303313175879251	-0.6014862270898897	-0.288347250390978	-0.1240381897424276	1.660839995356031e-09	5.457666329215524e-08	4.524090525481716e-08	-2.16422255240289e-08	-3.961942669539939e-09	9.413680865910243e-09	-4.432089237201538e-09
